<svg id="visual" viewBox="0 0 900 600" width="900" height="600" xmlns="http://www.w3.org/2000/svg" xmlns:xlink="http://www.w3.org/1999/xlink" version="1.1"><rect x="0" y="0" width="900" height="600" fill="#001220"></rect><defs><linearGradient id="grad1_0" x1="33.3%" y1="100%" x2="100%" y2="0%"><stop offset="20%" stop-color="#1a21ed" stop-opacity="1"></stop><stop offset="80%" stop-color="#1a21ed" stop-opacity="1"></stop></linearGradient></defs><defs><linearGradient id="grad1_1" x1="33.3%" y1="100%" x2="100%" y2="0%"><stop offset="20%" stop-color="#1a21ed" stop-opacity="1"></stop><stop offset="80%" stop-color="#0030d5" stop-opacity="1"></stop></linearGradient></defs><defs><linearGradient id="grad1_2" x1="33.3%" y1="100%" x2="100%" y2="0%"><stop offset="20%" stop-color="#0033ba" stop-opacity="1"></stop><stop offset="80%" stop-color="#0030d5" stop-opacity="1"></stop></linearGradient></defs><defs><linearGradient id="grad1_3" x1="33.3%" y1="100%" x2="100%" y2="0%"><stop offset="20%" stop-color="#0033ba" stop-opacity="1"></stop><stop offset="80%" stop-color="#00319c" stop-opacity="1"></stop></linearGradient></defs><defs><linearGradient id="grad1_4" x1="33.3%" y1="100%" x2="100%" y2="0%"><stop offset="20%" stop-color="#002b7c" stop-opacity="1"></stop><stop offset="80%" stop-color="#00319c" stop-opacity="1"></stop></linearGradient></defs><defs><linearGradient id="grad1_5" x1="33.3%" y1="100%" x2="100%" y2="0%"><stop offset="20%" stop-color="#002b7c" stop-opacity="1"></stop><stop offset="80%" stop-color="#00245c" stop-opacity="1"></stop></linearGradient></defs><defs><linearGradient id="grad1_6" x1="33.3%" y1="100%" x2="100%" y2="0%"><stop offset="20%" stop-color="#001c3d" stop-opacity="1"></stop><stop offset="80%" stop-color="#00245c" stop-opacity="1"></stop></linearGradient></defs><defs><linearGradient id="grad1_7" x1="33.3%" y1="100%" x2="100%" y2="0%"><stop offset="20%" stop-color="#001c3d" stop-opacity="1"></stop><stop offset="80%" stop-color="#001220" stop-opacity="1"></stop></linearGradient></defs><defs><linearGradient id="grad2_0" x1="0%" y1="100%" x2="66.7%" y2="0%"><stop offset="20%" stop-color="#1a21ed" stop-opacity="1"></stop><stop offset="80%" stop-color="#1a21ed" stop-opacity="1"></stop></linearGradient></defs><defs><linearGradient id="grad2_1" x1="0%" y1="100%" x2="66.7%" y2="0%"><stop offset="20%" stop-color="#0030d5" stop-opacity="1"></stop><stop offset="80%" stop-color="#1a21ed" stop-opacity="1"></stop></linearGradient></defs><defs><linearGradient id="grad2_2" x1="0%" y1="100%" x2="66.7%" y2="0%"><stop offset="20%" stop-color="#0030d5" stop-opacity="1"></stop><stop offset="80%" stop-color="#0033ba" stop-opacity="1"></stop></linearGradient></defs><defs><linearGradient id="grad2_3" x1="0%" y1="100%" x2="66.7%" y2="0%"><stop offset="20%" stop-color="#00319c" stop-opacity="1"></stop><stop offset="80%" stop-color="#0033ba" stop-opacity="1"></stop></linearGradient></defs><defs><linearGradient id="grad2_4" x1="0%" y1="100%" x2="66.7%" y2="0%"><stop offset="20%" stop-color="#00319c" stop-opacity="1"></stop><stop offset="80%" stop-color="#002b7c" stop-opacity="1"></stop></linearGradient></defs><defs><linearGradient id="grad2_5" x1="0%" y1="100%" x2="66.7%" y2="0%"><stop offset="20%" stop-color="#00245c" stop-opacity="1"></stop><stop offset="80%" stop-color="#002b7c" stop-opacity="1"></stop></linearGradient></defs><defs><linearGradient id="grad2_6" x1="0%" y1="100%" x2="66.7%" y2="0%"><stop offset="20%" stop-color="#00245c" stop-opacity="1"></stop><stop offset="80%" stop-color="#001c3d" stop-opacity="1"></stop></linearGradient></defs><defs><linearGradient id="grad2_7" x1="0%" y1="100%" x2="66.7%" y2="0%"><stop offset="20%" stop-color="#001220" stop-opacity="1"></stop><stop offset="80%" stop-color="#001c3d" stop-opacity="1"></stop></linearGradient></defs><g transform="translate(900, 600)"><path d="M-486.7 0C-475.7 -88.1 -464.7 -176.2 -421.5 -243.4C-378.4 -310.6 -303.1 -357 -227.5 -394C-151.9 -431.1 -75.9 -458.9 0 -486.7L0 0Z" fill="#00172e"></path><path d="M-425.9 0C-416.3 -77.1 -406.6 -154.1 -368.8 -213C-331.1 -271.8 -265.2 -312.3 -199.1 -344.8C-132.9 -377.2 -66.5 -401.6 0 -425.9L0 0Z" fill="#00204d"></path><path d="M-365.1 0C-356.8 -66.1 -348.5 -132.1 -316.2 -182.5C-283.8 -232.9 -227.3 -267.7 -170.6 -295.5C-113.9 -323.3 -57 -344.2 0 -365.1L0 0Z" fill="#00286c"></path><path d="M-304.2 0C-297.3 -55 -290.4 -110.1 -263.5 -152.1C-236.5 -194.1 -189.4 -223.1 -142.2 -246.3C-94.9 -269.5 -47.5 -286.8 0 -304.2L0 0Z" fill="#002e8c"></path><path d="M-243.4 0C-237.9 -44 -232.3 -88.1 -210.8 -121.7C-189.2 -155.3 -151.6 -178.5 -113.8 -197C-75.9 -215.6 -38 -229.5 0 -243.4L0 0Z" fill="#0032ab"></path><path d="M-182.5 0C-178.4 -33 -174.3 -66.1 -158.1 -91.3C-141.9 -116.5 -113.7 -133.9 -85.3 -147.8C-57 -161.7 -28.5 -172.1 0 -182.5L0 0Z" fill="#0032c8"></path><path d="M-121.7 0C-118.9 -22 -116.2 -44 -105.4 -60.8C-94.6 -77.6 -75.8 -89.2 -56.9 -98.5C-38 -107.8 -19 -114.7 0 -121.7L0 0Z" fill="#002ae2"></path><path d="M-60.8 0C-59.5 -11 -58.1 -22 -52.7 -30.4C-47.3 -38.8 -37.9 -44.6 -28.4 -49.3C-19 -53.9 -9.5 -57.4 0 -60.8L0 0Z" fill="#1a21ed"></path></g><g transform="translate(0, 0)"><path d="M486.7 0C477.1 90.5 467.5 181 421.5 243.4C375.6 305.7 293.3 340 217 375.9C140.7 411.7 70.3 449.2 0 486.7L0 0Z" fill="#00172e"></path><path d="M425.9 0C417.5 79.2 409.1 158.4 368.8 213C328.6 267.5 256.6 297.5 189.9 328.9C123.1 360.3 61.6 393.1 0 425.9L0 0Z" fill="#00204d"></path><path d="M365.1 0C357.8 67.9 350.6 135.8 316.2 182.5C281.7 229.3 220 255 162.8 281.9C105.5 308.8 52.8 336.9 0 365.1L0 0Z" fill="#00286c"></path><path d="M304.2 0C298.2 56.6 292.2 113.1 263.5 152.1C234.7 191.1 183.3 212.5 135.6 234.9C87.9 257.3 44 280.8 0 304.2L0 0Z" fill="#002e8c"></path><path d="M243.4 0C238.6 45.3 233.7 90.5 210.8 121.7C187.8 152.9 146.7 170 108.5 187.9C70.3 205.9 35.2 224.6 0 243.4L0 0Z" fill="#0032ab"></path><path d="M182.5 0C178.9 33.9 175.3 67.9 158.1 91.3C140.8 114.7 110 127.5 81.4 140.9C52.8 154.4 26.4 168.5 0 182.5L0 0Z" fill="#0032c8"></path><path d="M121.7 0C119.3 22.6 116.9 45.3 105.4 60.8C93.9 76.4 73.3 85 54.3 94C35.2 102.9 17.6 112.3 0 121.7L0 0Z" fill="#002ae2"></path><path d="M60.8 0C59.6 11.3 58.4 22.6 52.7 30.4C46.9 38.2 36.7 42.5 27.1 47C17.6 51.5 8.8 56.2 0 60.8L0 0Z" fill="#1a21ed"></path></g></svg>